# Blender v2.66 (sub 1) OBJ File: ''
# www.blender.org
mtllib cube_000010.mtl
o Cube
v -1.019674 -0.979931 -1.000000
v -1.019674 -0.979931 1.000000
v -0.979931 1.019674 1.000000
v -0.979931 1.019673 -1.000000
v 0.979931 -1.019674 -0.999999
v 0.979931 -1.019673 1.000001
v 1.019674 0.979932 1.000000
v 1.019674 0.979931 -1.000000
vn -0.999803 0.019871 0.000000
vn 0.999803 -0.019871 0.000000
vn -0.019871 -0.999803 0.000000
vn -0.000000 0.000000 1.000000
vn 0.019871 0.999803 -0.000000
vn 0.000000 -0.000000 -1.000000
vn -0.019871 -0.999803 0.000001
usemtl Material
s off
f 1//1 2//1 4//1
f 5//2 8//2 7//2
f 1//3 5//3 2//3
f 2//4 6//4 3//4
f 3//5 7//5 8//5
f 5//6 1//6 4//6
f 2//1 3//1 4//1
f 6//2 5//2 7//2
f 5//7 6//7 2//7
f 6//4 7//4 3//4
f 4//5 3//5 8//5
f 8//6 5//6 4//6
