# Blender v2.66 (sub 1) OBJ File: ''
# www.blender.org
mtllib cube_000110.mtl
o Cube
v -1.024253 0.975144 -1.000000
v -1.024253 0.975144 1.000000
v 0.975144 1.024253 1.000000
v 0.975143 1.024253 -1.000000
v -0.975144 -1.024253 -0.999999
v -0.975143 -1.024253 1.000001
v 1.024254 -0.975144 1.000000
v 1.024253 -0.975144 -1.000000
vn -0.024555 0.999699 0.000000
vn 0.024555 -0.999699 -0.000000
vn -0.999699 -0.024555 0.000000
vn 0.000000 0.000000 1.000000
vn 0.999699 0.024555 -0.000000
vn -0.000000 -0.000000 -1.000000
vn 0.024555 -0.999698 -0.000000
vn -0.999698 -0.024555 0.000001
vn 0.999698 0.024555 -0.000000
usemtl Material
s off
f 1//1 2//1 4//1
f 5//2 8//2 7//2
f 1//3 5//3 2//3
f 2//4 6//4 7//4
f 3//5 7//5 8//5
f 5//6 1//6 8//6
f 2//1 3//1 4//1
f 6//7 5//7 7//7
f 5//8 6//8 2//8
f 3//4 2//4 7//4
f 4//9 3//9 8//9
f 1//6 4//6 8//6
