# Blender v2.66 (sub 1) OBJ File: 'gatething.blend'
# www.blender.org
o Cube.002
v -1.000000 -0.000000 1.000000
v -1.000000 0.000000 -1.000000
v 1.000000 0.000000 -1.000000
v -1.000000 5.000000 1.000001
v 1.000000 5.000000 1.000001
v 1.000000 5.000000 -0.999999
v -1.000000 5.000000 -0.999999
v 1.000000 -0.000000 1.000000
vt 0.000000 0.334353
vt 0.333333 0.665647
vt 0.332314 0.333333
vt 1.000000 0.001019
vt 0.666667 0.332314
vt 0.998981 0.333333
vt 0.667686 0.666667
vt 1.000000 0.665647
vt 0.334353 0.666667
vt 0.666667 0.665647
vt 0.333333 0.334353
vt 0.333333 0.332314
vt 0.332314 0.000000
vt 0.001020 0.333333
vt 0.333333 0.001019
vt 0.665647 0.000000
vt 0.001019 0.666667
vt 0.667686 0.000000
vt 0.666667 0.334353
vt 0.665647 0.333333
vt 0.000000 0.001020
vt 0.334353 0.333333
vn -0.000000 1.000000 0.000000
vn -0.000000 -1.000000 -0.000000
vn 1.000000 0.000000 0.000000
vn 0.000000 -0.000000 1.000000
vn -1.000000 -0.000000 -0.000000
vn 0.000000 0.000000 -1.000000
s off
f 1/1/1 3/2/1 2/3/1
f 4/4/2 6/5/2 5/6/2
f 1/6/3 7/7/3 4/8/3
f 2/9/4 3/10/4 7/11/4
f 3/12/5 8/13/5 6/14/5
f 4/15/6 8/5/6 1/16/6
f 8/17/1 3/2/1 1/1/1
f 7/18/2 6/5/2 4/4/2
f 2/19/3 7/7/3 1/6/3
f 7/11/4 3/10/4 6/20/4
f 6/14/5 8/13/5 5/21/5
f 5/22/6 8/5/6 4/15/6
